# Blender 4.3.2
# www.blender.org
mtllib ex1.mtl
o Cube
v 1.000000 1.000000 -1.000000
v 1.000000 -1.000000 -1.000000
v 1.000000 1.000000 1.000000
v 1.000000 -1.000000 1.000000
v -1.000000 1.000000 -1.000000
v -1.000000 -1.000000 -1.000000
v -1.000000 1.000000 1.000000
v -1.000000 -1.000000 1.000000
vn -0.0000 1.0000 -0.0000
vn -0.0000 -0.0000 1.0000
vn -1.0000 -0.0000 -0.0000
vn -0.0000 -1.0000 -0.0000
vn 1.0000 -0.0000 -0.0000
vn -0.0000 -0.0000 -1.0000
vt 0.000000 0.467414
vt 0.550098 0.000000
vt 1.000000 0.561861
vt 0.455489 1.000000
vt 0.927883 0.062243
vt 0.932269 0.928303
vt 0.071318 0.938087
vt 0.077424 0.056213
vt 0.043692 0.942973
vt 0.043692 0.057027
vt 0.956308 0.057027
vt 0.956308 0.942973
vt 0.531005 1.000000
vt 0.000000 0.518911
vt 0.471567 0.000000
vt 1.000000 0.459528
vt 0.984126 0.000000
vt 1.000000 0.933668
vt 0.000000 1.000000
vt 0.026822 0.100275
vt 0.966307 0.124784
vt 1.000000 1.000000
vt 0.000000 0.906425
vt 0.019312 0.000000
s 0
usemtl Material
f 1/1/1 5/2/1 7/3/1 3/4/1
f 4/5/2 3/6/2 7/7/2 8/8/2
f 8/9/3 7/10/3 5/11/3 6/12/3
f 6/13/4 2/14/4 4/15/4 8/16/4
f 2/17/5 1/18/5 3/19/5 4/20/5
f 6/21/6 5/22/6 1/23/6 2/24/6
